HIERARCHY
ROOT Hips
{
    OFFSET 0.000000 0.000000 0.000000
    CHANNELS 6 Xposition Yposition Zposition Zrotation Xrotation Yrotation
    JOINT Spine
    {
        OFFSET -0.000000 0.081343 0.000000
        CHANNELS 3 Zrotation Xrotation Yrotation
        JOINT Spine1
        {
            OFFSET -0.000000 0.243280 0.000000
            CHANNELS 3 Zrotation Xrotation Yrotation
            JOINT Neck
            {
                OFFSET -0.000000 0.242281 0.022026
                CHANNELS 3 Zrotation Xrotation Yrotation
                JOINT Head
                {
                    OFFSET -0.000000 0.149025 -0.021289
                    CHANNELS 3 Zrotation Xrotation Yrotation
                    End Site
                    {
                        OFFSET -0.000000 0.198396 0.000000
                    }
                }
            }
            JOINT LeftShoulder
            {
                OFFSET 0.039707 0.224479 -0.002125
                CHANNELS 3 Zrotation Xrotation Yrotation
                JOINT LeftArm
                {
                    OFFSET 0.116942 0.000000 0.000000
                    CHANNELS 3 Zrotation Xrotation Yrotation
                    JOINT LeftForeArm
                    {
                        OFFSET 0.282002 0.000000 0.000000
                        CHANNELS 3 Zrotation Xrotation Yrotation
                        JOINT LeftHand
                        {
                            OFFSET 0.358743 0.000000 0.000000
                            CHANNELS 3 Zrotation Xrotation Yrotation
                            End Site
                            {
                                OFFSET 0.148797 0.000000 0.000000
                            }
                        }
                    }
                }
            }
            JOINT RightShoulder
            {
                OFFSET -0.039404 0.224479 -0.002125
                CHANNELS 3 Zrotation Xrotation Yrotation
                JOINT RightArm
                {
                    OFFSET -0.116942 0.000000 0.000000
                    CHANNELS 3 Zrotation Xrotation Yrotation
                    JOINT RightForeArm
                    {
                        OFFSET -0.282002 0.000000 0.000000
                        CHANNELS 3 Zrotation Xrotation Yrotation
                        JOINT RightHand
                        {
                            OFFSET -0.358743 0.000000 0.000000
                            CHANNELS 3 Zrotation Xrotation Yrotation
                            End Site
                            {
                                OFFSET -0.148797 0.000000 0.000000
                            }
                        }
                    }
                }
            }
        }
    }
    JOINT LeftUpLeg
    {
        OFFSET 0.099198 0.000000 0.000000
        CHANNELS 3 Zrotation Xrotation Yrotation
        JOINT LeftLeg
        {
            OFFSET -0.000000 -0.332973 0.000000
            CHANNELS 3 Zrotation Xrotation Yrotation
            JOINT LeftFoot
            {
                OFFSET -0.000000 -0.491254 0.000000
                CHANNELS 3 Zrotation Xrotation Yrotation
                JOINT LeftToeBase
                {
                    OFFSET -0.000000 -0.064479 0.148797
                    CHANNELS 3 Zrotation Xrotation Yrotation
                    End Site
                    {
                        OFFSET -0.000000 0.000000 0.039679
                    }
                }
            }
        }
    }
    JOINT RightUpLeg
    {
        OFFSET -0.099198 0.000000 0.000000
        CHANNELS 3 Zrotation Xrotation Yrotation
        JOINT RightLeg
        {
            OFFSET -0.000000 -0.332973 0.000000
            CHANNELS 3 Zrotation Xrotation Yrotation
            JOINT RightFoot
            {
                OFFSET -0.000000 -0.491254 0.000000
                CHANNELS 3 Zrotation Xrotation Yrotation
                JOINT RightToeBase
                {
                    OFFSET -0.000000 -0.064479 0.148797
                    CHANNELS 3 Zrotation Xrotation Yrotation
                    End Site
                    {
                        OFFSET -0.000000 0.000000 0.039679
                    }
                }
            }
        }
    }
}
MOTION
Frames:    4
Frame Time:    0.010000
0.358781    0.861856    0.411664    8.121984    2.051346    118.738380    -2.620258    5.256567    -14.440459    12.449295    7.351439    -5.658398    2.941041    25.384321    9.495893    -24.109274    -8.796688    4.872499    10.912899    6.970528    -22.440105    -2.260115    29.234983    -46.685684    35.419743    -11.610495    -84.124504    24.163347    21.022835    -3.641222    -3.971878    -4.257600    24.466396    28.115755    9.322479    36.019665    -104.564987    -52.331684    15.121894    -37.679379    -36.257111    -8.200283    25.470562    -5.561817    14.082170    -14.334178    29.139177    10.267797    -3.981272    -12.289021    20.308313    0.000000    0.000000    0.000000    -5.825790    -5.968384    -13.255226    6.691096    9.566981    -53.128513    14.886530    -22.025309    26.003521    0.000000    0.000000    0.000000    
0.359407    0.861658    0.411945    8.154099    2.102783    119.260818    -2.734745    5.203924    -14.368190    12.678268    7.327059    -5.647794    2.662784    25.584797    9.398286    -24.014313    -8.789585    4.773286    10.917398    7.091001    -22.554459    -1.770938    29.501324    -47.274776    34.757839    -11.956660    -85.318855    23.874712    20.744411    -3.566866    -3.927286    -4.071323    24.575104    28.146212    9.435097    36.187271    -105.346268    -52.126522    14.338377    -37.734276    -36.533016    -8.506471    25.487741    -5.803058    14.000341    -14.187884    29.305775    9.946389    -3.820615    -12.047859    19.819155    0.000000    0.000000    0.000000    -5.792289    -5.779922    -13.329469    6.657181    9.509557    -53.272591    14.886530    -22.025309    26.003521    0.000000    0.000000    0.000000    
0.359288    0.861492    0.412298    8.136365    2.131749    119.652145    -2.738788    5.210395    -14.180692    12.664134    7.175570    -5.567575    2.684196    25.746105    9.320532    -24.093592    -8.688174    4.701054    11.059906    7.136538    -22.633129    -1.383605    29.795258    -47.908657    34.425644    -12.290320    -86.206345    23.632069    20.636370    -3.444364    -3.685128    -3.839060    24.681890    28.090399    9.453265    36.453030    -106.131966    -51.562012    13.508978    -37.386364    -36.601807    -8.214277    25.438551    -6.105987    13.994997    -14.008430    29.480829    9.671724    -4.013024    -12.216545    20.132856    0.000000    0.000000    0.000000    -5.795427    -5.793514    -13.252235    6.640235    9.572286    -53.468449    14.886530    -22.025309    26.003521    0.000000    0.000000    0.000000    
0.360014    0.861240    0.412312    8.210152    2.265231    120.219299    -2.846014    5.194094    -14.044876    12.911108    7.209971    -5.543452    2.349846    25.838318    9.234141    -23.997046    -8.637850    4.613365    10.895596    7.251371    -22.628632    -0.930702    29.890057    -48.604477    34.343319    -12.292873    -87.114380    23.588612    20.996084    -3.928266    -3.747080    -3.735324    24.716513    28.262123    9.449841    36.762100    -106.729645    -51.304981    13.027713    -37.187424    -36.675945    -8.157978    25.351896    -6.275006    13.826638    -13.832021    29.611588    9.319170    -4.010054    -12.215694    20.044950    0.000000    0.000000    0.000000    -5.857458    -5.368236    -12.445307    6.877151    9.223683    -54.168510    14.886530    -22.025309    26.003521    0.000000    0.000000    0.000000    
